<svg xmlns="http://www.w3.org/2000/svg" version="1.1" viewBox="-5.0 -10.0 110.0 135.0">
 <g>
  <path d="m57.449 72.195c-12.141 0-21.984-9.4023-21.984-21 0-11.598 9.8438-20.996 21.984-20.996 1.3242 0 2.6172 0.11719 3.8789 0.33203-3.293-1.3984-6.9258-2.1797-10.742-2.1797-14.93 0-27.031 11.855-27.031 26.48 0 14.621 12.102 26.477 27.031 26.477 12.734 0 23.402-8.6289 26.27-20.238-3.7031 6.6211-11 11.125-19.406 11.125z"/>
  <path d="m50.586 81.809c-15.18 0-27.531-12.102-27.531-26.977s12.352-26.98 27.531-26.98c3.793 0 7.4766 0.74609 10.938 2.2188l3.9297 1.6719-4.207-0.71875c-1.2656-0.21484-2.543-0.32422-3.793-0.32422-11.848 0-21.484 9.1953-21.484 20.496 0 11.305 9.6367 20.5 21.484 20.5 7.9531 0 15.219-4.1641 18.965-10.867l1.8125-3.2422-0.89062 3.6055c-2.9961 12.141-13.996 20.617-26.754 20.617zm0-52.953c-14.629 0-26.531 11.652-26.531 25.98 0 14.324 11.902 25.977 26.531 25.977 11.102 0 20.824-6.6562 24.73-16.555-4.2148 5.2773-10.781 8.4414-17.863 8.4414-12.398 0-22.484-9.6445-22.484-21.5 0-11.812 10.02-21.434 22.359-21.496-2.1875-0.56641-4.4453-0.84766-6.7422-0.84766z"/>
  <path d="m70.168 18.895c-1.5273 3.668-4.0156 4.3086-4.0156 4.3086s2.4883 1.3789 4.0156 9.2422c1.5977-7.8633 4.1992-9.2422 4.1992-9.2422s-2.6016-0.64062-4.1992-4.3086z"/>
  <path d="m70.16 33.73-0.23828-1.2344c-1.4766-7.6016-3.8711-9.0586-3.8945-9.0742l-0.52344-0.30469 0.58594-0.15625c0.023437-0.007813 2.3945-0.67188 3.8516-4.1641l0.22656-0.54297 0.23438 0.53906c1.5195 3.4961 4.0039 4.1602 4.0273 4.168l0.62891 0.16016-0.57031 0.30469c-0.023437 0.011719-2.5273 1.4727-4.0703 9.0742zm-3.5078-10.449c0.72656 0.67188 2.3359 2.6797 3.5195 7.9688 1.2344-5.2812 2.9102-7.2891 3.6719-7.9648-0.79297-0.33984-2.4492-1.3125-3.6758-3.7852-1.168 2.4727-2.7539 3.4414-3.5156 3.7812z"/>
  <path d="m63.191 17.711c-0.82422 2.2031-2.1719 2.5898-2.1719 2.5898s1.3477 0.39062 2.1719 2.6055c0.85938-2.2188 2.2695-2.6055 2.2695-2.6055s-1.4062-0.38672-2.2695-2.5898z"/>
  <path d="m63.188 23.613-0.23047-0.61719c-0.76562-2.0547-1.9961-2.4492-2.0078-2.4531l-0.80859-0.24609 0.80859-0.23438c0.011719-0.003906 1.2422-0.39844 2.0078-2.4375l0.23047-0.61328 0.23828 0.60938c0.79688 2.043 2.0898 2.4375 2.1016 2.4414l0.85156 0.24609-0.85156 0.23438c-0.011719 0.003906-1.3047 0.39844-2.1016 2.457zm-1.6055-3.3086c0.4375 0.27734 1.0898 0.85156 1.6133 1.9727 0.54688-1.1211 1.2266-1.6914 1.6836-1.9727-0.45703-0.27734-1.1367-0.84375-1.6836-1.9609-0.52344 1.1133-1.1758 1.6836-1.6133 1.9609z"/>
 </g>
<text x="0.0" y="117.5" font-size="5.0" font-weight="bold" font-family="Arbeit Regular, Helvetica, Arial-Unicode, Arial, Sans-serif" fill="#000000">Created by Chaiconator</text><text x="0.0" y="122.5" font-size="5.0" font-weight="bold" font-family="Arbeit Regular, Helvetica, Arial-Unicode, Arial, Sans-serif" fill="#000000">from Noun Project</text></svg>